<svg xmlns="http://www.w3.org/2000/svg" viewBox="0 0 458 198" fill="#000091">
    <path d="M339.546747 135.234341c3.7591 0 6.68688 1.363909 8.785357 4.085673 2.098478 2.7258 3.145699 6.593571 3.145699 11.60533 0 3.922246-.708236 7.681065-2.124709 11.276458-1.416472 3.595392-3.40599 6.72875-5.964519 9.396039-1.963287 2.070074-4.059747 3.663991-6.293415 4.779733-2.233668 1.11776-4.576296 1.676639-7.025865 1.676639-4.033516 0-7.520218-1.470842-10.462122-4.414544L315.194317 197.5h-9.72362l11.358011-61.285097h9.723619l-1.388224 7.436934c2.615026-2.994143 5.052489-5.148957 7.314406-6.454355 2.259899-1.307416 4.616651-1.963141 7.068238-1.963141zm-52.381232.002018c4.356359 0 7.65339 1.880418 9.887058 5.639237l.897907-4.658676h9.80433l-7.592858 40.856732h-9.806347l1.224784-6.210223c-1.470952 1.363908-2.81882 2.491756-4.045623 3.391613-1.226802.899857-2.385 1.636287-3.472577 2.207272-1.091612.570986-2.19533.980562-3.311155 1.224693-1.117843.244132-2.276041.369224-3.474595.369224-3.593643 0-6.414481-1.38812-8.456462-4.166378-2.04198-2.778258-3.064988-6.646028-3.064988-11.603312 0-3.595392.585153-7.027357 1.757475-10.297914 1.170305-3.268538 2.736092-6.141624 4.697362-8.619257 1.963287-2.47965 4.237311-4.452879 6.824088-5.925739 2.586777-1.470842 5.298656-2.207272 8.131601-2.207272zm91.527929 0c2.453605 0 4.713504.464051 6.783733 1.38812 2.068211.928103 3.866042 2.207272 5.393491 3.841541 1.523414 1.63427 2.709861 3.593375 3.555306 5.88337.841409 2.287977 1.26514 4.793856 1.26514 7.517638 0 3.379508-.601295 6.537077-1.799848 9.478762-1.198554 2.941685-2.818821 5.504057-4.860801 7.681066-2.043998 2.179025-4.441105 3.896017-7.191322 5.148957-2.750216 1.250922-5.677996 1.880418-8.785357 1.880418-2.562565 0-4.919316-.464052-7.068238-1.38812-2.152958-.926086-4.005268-2.233501-5.558948-3.922246-1.551663-1.688745-2.764341-3.676097-3.636017-5.964074-.873693-2.289995-1.307513-4.793857-1.307513-7.519657 0-3.320996.613402-6.440231 1.840204-9.355687 1.224785-2.913438 2.887425-5.461687 4.983885-7.640713 2.096459-2.177008 4.550064-3.893999 7.356778-5.148957 2.804696-1.250922 5.815205-1.880418 9.029507-1.880418zm71.671085-11.35918l-2.288148 12.337724H457.8l-1.065381 5.639237H447.011l-3.595661 18.957524c-.274416 1.25294-.490317 2.465527-.653757 3.637762-.163439 1.170218-.244149 2.057969-.244149 2.653166 0 1.254957.310736 2.316223.940279 3.187834.625508.87161 1.674747 1.305397 3.145699 1.305397 1.089594 0 2.723985-.379311 4.905191-1.14197l.571029 5.393088c-1.579912.710201-3.282907 1.25294-5.106969 1.634269-1.826079.379312-3.529074.573003-5.106968.573003-3.105344 0-5.462095-.681954-7.068238-2.043845-1.60816-1.361891-2.411231-3.349243-2.411231-5.966092 0-.435805.014124-.800993.042373-1.101618.026231-.298607.08071-.696078.163439-1.186359.08071-.49028.18967-1.156094.326878-2.001475.133173-.843364.338985-2.001475.613401-3.472318l3.757082-20.428366h-4.983884l1.061345-5.639237h5.066613l1.880559-10.130452 10.050498-2.207272zm-187.303259 11.35918c1.089595 0 2.070229.193691 2.941905.573003.871675.379312 1.85231 1.117759 2.941904 2.205254l-4.659024 7.925198c-1.361993-.599232-2.562564-.89784-3.595661-.89784-1.579911 0-3.050864.38133-4.412856 1.143989-1.361993.762659-2.615026 2.12455-3.7591 4.083655-.708236 1.143989-1.295407 2.54825-1.755458 4.208748-.464086 1.662516-.914048 3.772943-1.349886 6.333298l-3.022615 16.261988h-9.806347l7.600928-40.856732h9.723619l-1.470952 7.844493 2.368859-3.349243c1.416472-1.961124 2.711878-3.363367 3.882183-4.208748 1.172323-.843364 2.629151-1.267063 4.372501-1.267063zm160.822084 0c1.089595 0 2.070229.193691 2.941905.573003.871675.379312 1.85231 1.117759 2.941904 2.205254l-4.659024 7.925198c-1.361993-.599232-2.562564-.89784-3.595661-.89784-1.579911 0-3.050864.38133-4.412856 1.143989-1.361993.762659-2.615026 2.12455-3.7591 4.083655-.708237 1.143989-1.295407 2.54825-1.755458 4.208748-.464086 1.662516-.914048 3.772943-1.349886 6.333298l-3.022615 16.261988h-9.806347l7.600928-40.856732h9.723619l-1.470952 7.844493 2.368858-3.349243c1.416473-1.961124 2.711879-3.363367 3.882184-4.208748 1.172323-.843364 2.629151-1.267063 4.372501-1.267063zM91.57327 112.856958c8.738949 2.043845 15.008151 6.664187 18.632061 13.727862 5.092843 9.926672 4.009303 22.996791 2.205419 32.213263-1.953199 10.011412-5.133199 17.704583-5.165484 17.777218-.147297.334924-.43382.502386-.714289.498422-.514531 0-.595241-.40763-.58717-.641673.014124-.451946 2.106548-44.109129-25.272532-51.188945-24.74533-6.378654-74.0840843 16.310411-76.524412 17.446502l-.0902015.042197c-.1856346.090792-.5811169.125092-.736485-.149304-.2522209-.443876.1715102-.734412.2865229-.813099.5690103-.38133 14.0598006-9.400075 31.3560994-17.387818 10.3350022-4.767628 19.9718582-8.23591 28.6381672-10.308002 10.877782-2.602726 20.288647-3.014319 27.972304-1.216623zm150.3983 7.015252l-1.303478 6.946653h-17.407276l-3.432222 18.057667h16.99767l-1.226803 6.944635h-17.07838l-4.659024 25.250469h-10.379393l10.623543-57.199424h27.865363zm135.658511 20.920664c-1.579911 0-3.077095.530633-4.495585 1.5919-1.41849 1.061266-2.653363 2.47965-3.718744 4.2491-1.061346 1.771467-1.90679 3.8254-2.532298 6.16987-.627525 2.342453-.940279 4.793857-.940279 7.354212 0 3.922246.665863 6.960777 2.001625 9.111556 1.333744 2.152796 3.254658 3.230204 5.760724 3.230204 1.577894 0 3.008491-.395453 4.289773-1.186359 1.279264-.788888 2.382983-1.892524 3.311156-3.308891.597259-.87161 1.142056-1.920771 1.634391-3.147481.492335-1.226711.912031-2.534126 1.267158-3.922247.353109-1.38812.625507-2.830715.817195-4.329804.18967-1.499089.286523-2.982037.286523-4.454897 0-3.649868-.64165-6.454355-1.920914-8.417496-1.281282-1.961123-3.200178-2.939667-5.760725-2.939667zm-42.330734.815117c-1.799848 0-3.512932.710201-5.149341 2.12455-1.634392 1.418385-3.159823 3.431966-4.576296 6.046797-.653756 1.254957-1.240927 2.491756-1.757475 3.718467-.518566 1.224693-.980635 2.534126-1.388224 3.922246-.407589 1.38812-.748591 2.913438-1.02099 4.575954-.274416 1.662516-.490317 3.500564-.653756 5.516163.653756 1.470842 1.702995 2.614831 3.145698 3.431965 1.444722.815117 2.873301 1.224693 4.291791 1.224693 1.686853 0 3.321244-.544756 4.903174-1.636286 1.579911-1.087496 2.970153-2.586585 4.166689-4.49525 1.198553-1.90463 2.150939-4.111902 2.861193-6.617781.706219-2.501845 1.061346-5.199398 1.061346-8.086607 0-3.429948-.518566-5.909598-1.553681-7.436934-1.037132-1.5233-2.479836-2.287977-4.330128-2.287977zm-46.580151-.242114c-1.634392 0-3.214303.585109-4.739735 1.755327-1.525432 1.172235-2.875318 2.725799-4.045623 4.658676-1.172323 1.934894-2.09646 4.166378-2.778465 6.700504-.682005 2.534126-1.02099 5.16308-1.02099 7.884844 0 2.778258.462068 5.054129 1.388224 6.823579.926155 1.771467 2.532297 2.655183 4.822463 2.655183 1.904772 0 3.70462-.859504 5.393491-2.574478 1.686853-1.714974 3.105343-3.962599 4.247399-6.740857.435838-.980561.859569-2.110426 1.267158-3.391613.409607-1.279169.762716-2.572461 1.061346-3.881894.298629-1.309433.53269-2.600707.696129-3.881894.165457-1.279168.246168-2.43728.246168-3.4703 0-1.799713-.585153-3.337137-1.755458-4.618324-1.172322-1.279168-2.766358-1.918753-4.782107-1.918753zm-16.053355-65.078216c.20783.026229.633579.141233.595242.587126-.026231.282467-.290559.506422-.645686.526598-.151332.010088-15.387491.867575-33.950948 4.243048-16.77975 3.050636-39.675352 8.84523-53.43047 19.114897-27.962215 20.864171-22.106655 62.808398-22.044105 63.23008.042374.318783-.209847.577038-.445926.669848-.468122.183603-.722361-.062546-.853515-.284484-.060534-.102898-6.906817-11.032326-9.10013-25.304944-1.285317-8.352932-.730431-16.169178 1.652551-23.23487 2.978225-8.827072 8.831767-16.483926 17.397188-22.758713 8.036766-5.885387 18.347555-10.429059 30.643827-13.507942 9.810383-2.455439 20.91012-3.98681 32.994526-4.551742 20.103013-.938192 36.382357 1.172235 37.187446 1.271098zM49.819617 46.495538c.619455.09281 6.087603.960385 12.09046 3.097041 5.869684 2.092268 13.482719 5.871264 16.426641 11.986659 2.15094 4.467002 1.573859 9.577625-1.717119 15.194669-3.656194 6.236452-9.923378 12.269125-18.62399 17.930556-6.943136 4.521479-15.4419707 8.816984-25.260425 12.763442-16.8463368 6.779191-31.6789421 10.188962-31.8201858 10.213174-.1715102.032282-.5932235.094828-.7021829-.342995-.0625508-.250185.1089594-.514492.4035534-.641602.4802286-.209832 48.1540093-20.630128 60.2363983-40.192936 2.895496-4.684905 3.716727-9.333493 2.443516-13.818654-2.643275-9.317353-13.547288-15.009049-14.009356-15.24511-.147297-.074652-.31679-.300625-.205812-.605285.125101-.340977.540761-.367206.738502-.338959zM213.391918 1.8355993c.266345.1977264.191688.5306331.068604.6698487-.151333.1714974-14.697415 15.816095-14.122352 28.095308.16344 3.532846 1.565788 6.488654 4.170725 8.784702 7.855167 6.930512 27.193446 8.677768 42.034122 8.923917 16.43673.278431 30.968688-1.1682 31.109932-1.180306.223972-.018158.599277.044388.665863.385365.096853.508439-.407589.64362-.55085.679937-1.830115.455981-18.200259 4.47709-36.719324 6.359527-6.36202.645637-12.263988.970473-17.653444.970473-4.261524 0-8.202223-.201762-11.803937-.607302-10.250256-1.150042-17.764421-3.960581-22.330627-8.352932-3.163859-3.038531-4.582349-6.674275-4.219151-10.802318.736485-8.181435 8.472603-16.966136 14.832605-22.893893 6.860408-6.3897914 13.650194-10.9415339 13.718798-10.9839039.108959-.0726342.494353-.2743958.799036-.0484228zm-33.60591-.8312579c.310736.268343.10896.6254611.086764.6819543-.603312 1.5656703-4.209062 10.4895873-11.230891 18.8162903-4.519798 5.358789-9.757921 10.071941-15.56909 14.012346-7.257908 4.927019-15.460131 8.665662-24.376644 11.113031-6.394303 1.751291-12.4698 2.632989-18.137707 2.635007-2.046016 0-4.037552-.115004-5.972591-.345013-5.841435-.69406-11.176411-2.43728-15.855613-5.183256-7.31037-4.293488-10.177617-11.219965-10.726449-12.644402-.086764-.221938-.100889-.514492.191688-.677919.308718-.173515.508477-.117022.655774-.044388 1.067399.524581 22.911744 11.056538 49.776294 3.714432 28.254792-7.7194 50.111244-31.5272733 50.502691-31.9408847.217919-.2300083.494353-.2764134.655774-.1371979z"></path>
  </svg>